<svg width="512" height="512" viewBox="0 0 512 512" fill="none" xmlns="http://www.w3.org/2000/svg">
<path d="M254.274 14.1257C249.873 14.3474 245.561 15.4386 241.591 17.3352L68.5195 100.031C64.04 102.17 60.1041 105.283 57.004 109.138C53.9039 112.993 51.7193 117.491 50.6125 122.298L7.91461 308.053C6.92865 312.333 6.81831 316.765 7.59011 321.088C8.36191 325.411 10.0002 329.536 12.408 333.22C12.9918 334.121 13.6197 334.992 14.2894 335.832L134.083 484.777C137.183 488.631 141.12 491.742 145.599 493.881C150.079 496.019 154.987 497.129 159.958 497.128L352.066 497.084C357.035 497.087 361.942 495.981 366.421 493.846C370.901 491.712 374.838 488.605 377.941 484.754L497.69 335.788C500.792 331.932 502.979 327.432 504.086 322.623C505.194 317.813 505.194 312.818 504.087 308.009L461.323 122.254C460.216 117.447 458.031 112.948 454.931 109.093C451.831 105.238 447.895 102.126 443.416 99.9863L270.322 17.3352C265.328 14.9494 259.81 13.8458 254.274 14.1257V14.1257Z" fill="#326CE5"/>
<path d="M254.274 14.1257C249.873 14.3474 245.561 15.4386 241.591 17.3352L68.5195 100.031C64.04 102.17 60.1041 105.283 57.004 109.138C53.9039 112.993 51.7193 117.491 50.6125 122.298L7.91461 308.053C6.92865 312.333 6.81831 316.765 7.59011 321.088C8.36191 325.411 10.0002 329.536 12.408 333.22C12.9918 334.121 13.6197 334.992 14.2894 335.832L134.083 484.777C137.183 488.631 141.12 491.742 145.599 493.881C150.079 496.019 154.987 497.129 159.958 497.128L352.066 497.084C357.035 497.087 361.942 495.981 366.421 493.846C370.901 491.712 374.838 488.605 377.941 484.754L497.69 335.788C500.792 331.932 502.979 327.432 504.086 322.623C505.194 317.813 505.194 312.818 504.087 308.009L461.323 122.254C460.216 117.447 458.031 112.948 454.931 109.093C451.831 105.238 447.895 102.126 443.416 99.9863L270.322 17.3352C265.328 14.9494 259.81 13.8458 254.274 14.1257V14.1257Z" fill="url(#paint0_linear_1_2)"/>
<path fill-rule="evenodd" clip-rule="evenodd" d="M245.63 88.8505C245.629 82.4941 250.268 77.3411 255.989 77.3405C261.71 77.3399 266.348 82.4941 266.348 88.8505C266.349 89.1705 266.357 89.5292 266.364 89.8963C266.377 90.563 266.39 91.2569 266.37 91.7945C266.28 94.2131 265.902 96.2573 265.517 98.3383C265.318 99.4117 265.117 100.495 264.954 101.644L264.887 102.195C264.045 109.179 263.341 115.009 263.781 120.437C264.134 122.842 265.395 123.992 266.601 125.092C266.792 125.266 266.982 125.439 267.167 125.616C267.198 126.367 267.319 128.862 267.411 130.242C300.348 133.168 330.937 148.231 353.404 171.789L357.344 168.978C357.503 168.988 357.684 169.002 357.883 169.017C359.365 169.131 361.86 169.323 363.63 168.292C368.154 165.246 372.285 161.05 377.23 156.027L377.597 155.653C378.378 154.825 379.089 154.011 379.794 153.204C381.202 151.591 382.583 150.01 384.437 148.415C384.895 148.021 385.523 147.531 386.102 147.078C386.326 146.903 386.542 146.734 386.739 146.578C391.708 142.614 398.621 143.035 402.189 147.508C405.757 151.98 404.613 158.817 399.644 162.781C399.41 162.968 399.154 163.18 398.89 163.397C398.363 163.832 397.809 164.289 397.364 164.618C395.433 166.044 393.601 167.014 391.742 167.999C390.76 168.52 389.77 169.044 388.753 169.642L388.745 169.647C382.553 173.472 377.419 176.643 373.347 180.466C371.681 182.249 371.566 183.95 371.456 185.581C371.439 185.833 371.422 186.083 371.4 186.332C371.123 186.586 370.51 187.133 369.83 187.741C369.095 188.397 368.282 189.124 367.725 189.63C376.654 202.92 383.349 218.004 387.137 234.497C390.891 250.838 391.476 267.169 389.307 282.862L393.49 284.079C393.578 284.204 393.677 284.349 393.787 284.511C394.613 285.725 396.043 287.828 397.961 288.572C403.238 290.234 409.17 290.856 416.315 291.604L416.532 291.627C417.702 291.724 418.817 291.768 419.923 291.811C422.031 291.894 424.106 291.976 426.471 292.424C427.009 292.526 427.702 292.698 428.363 292.862C428.761 292.96 429.147 293.056 429.481 293.132C435.587 294.606 439.508 300.219 438.247 305.749C436.985 311.28 431.02 314.641 424.877 313.319C424.833 313.309 424.768 313.307 424.722 313.297C424.653 313.281 424.592 313.247 424.523 313.23C424.214 313.163 423.876 313.095 423.536 313.027C422.934 312.906 422.323 312.783 421.845 312.655C419.515 312.031 417.608 311.205 415.669 310.366C414.659 309.928 413.64 309.487 412.548 309.069L412.234 308.957C405.52 306.549 399.932 304.544 394.486 303.757C392.063 303.566 390.664 304.538 389.325 305.468C389.112 305.616 388.901 305.763 388.687 305.904C387.93 305.752 385.6 305.34 384.26 305.129C374.334 336.324 353.197 363.334 324.54 380.254C324.699 380.638 324.893 381.159 325.097 381.706C325.528 382.863 326.001 384.133 326.267 384.438C326.176 384.679 326.08 384.919 325.982 385.161C325.375 386.667 324.745 388.229 325.47 390.547C327.481 395.761 330.734 400.858 334.656 406.993C335.306 407.963 335.96 408.855 336.609 409.74C337.857 411.442 339.084 413.115 340.212 415.249C340.497 415.789 340.847 416.529 341.166 417.206C341.307 417.503 341.441 417.788 341.562 418.038C344.226 423.734 342.271 430.295 337.157 432.758C332.003 435.241 325.595 432.619 322.836 426.892C322.718 426.649 322.585 426.381 322.448 426.105C322.128 425.462 321.786 424.772 321.552 424.236C320.58 422.008 320.027 419.992 319.465 417.938C319.179 416.893 318.89 415.838 318.542 414.74L318.445 414.457C316.137 407.692 314.221 402.077 311.437 397.32C310.068 395.296 308.429 394.803 306.86 394.331C306.62 394.259 306.382 394.187 306.146 394.111C305.976 393.818 305.566 393.075 305.119 392.263C304.701 391.507 304.251 390.691 303.933 390.127C298.21 392.289 292.291 394.091 286.159 395.483C259.28 401.586 232.372 399.11 208.333 389.883L205.987 394.133C204.24 394.601 202.556 395.075 201.523 396.307C198.871 399.471 197.339 403.979 195.711 408.769C195.023 410.795 194.317 412.871 193.503 414.917C193.149 416.033 192.859 417.105 192.571 418.168C192.02 420.203 191.479 422.204 190.515 424.413C190.292 424.923 189.969 425.567 189.661 426.181C189.509 426.484 189.361 426.78 189.231 427.047C189.229 427.051 189.23 427.055 189.231 427.06C189.232 427.063 189.232 427.067 189.231 427.069C189.229 427.073 189.224 427.077 189.22 427.081C189.215 427.084 189.211 427.088 189.209 427.092C186.444 432.8 180.056 435.413 174.91 432.935C169.795 430.473 167.842 423.912 170.505 418.215C170.648 417.918 170.808 417.572 170.974 417.214C171.264 416.585 171.571 415.921 171.833 415.426C172.966 413.281 174.2 411.592 175.455 409.875C176.098 408.995 176.746 408.108 177.389 407.148C181.31 401.013 184.754 395.509 186.765 390.295C187.27 388.564 186.522 386.191 185.844 384.438L187.726 379.922C160.151 363.583 138.375 337.544 127.984 305.328L123.468 306.103C123.331 306.026 123.179 305.938 123.012 305.841C121.708 305.085 119.563 303.84 117.514 304C112.064 304.789 106.471 306.795 99.7495 309.206L99.4523 309.313C98.3787 309.724 97.3755 310.155 96.3815 310.582C94.4256 311.422 92.5055 312.247 90.1557 312.876C89.625 313.018 88.9315 313.165 88.2678 313.305C87.9949 313.363 87.7269 313.419 87.4774 313.474C87.444 313.482 87.4124 313.494 87.3809 313.506C87.3474 313.519 87.3139 313.532 87.2782 313.54C87.2551 313.545 87.2275 313.548 87.2002 313.551C87.1727 313.554 87.1455 313.557 87.1232 313.562C80.9809 314.886 75.0169 311.523 73.7539 305.992C72.4911 300.463 76.4135 294.851 82.5192 293.375C82.542 293.37 82.569 293.362 82.5963 293.353C82.6233 293.345 82.6506 293.337 82.6742 293.331C82.6881 293.328 82.7016 293.324 82.7151 293.321C82.7308 293.317 82.7465 293.313 82.7627 293.309C83.0237 293.248 83.3062 293.179 83.5952 293.109C84.2673 292.945 84.9747 292.772 85.5295 292.667C87.8934 292.219 89.9688 292.138 92.0764 292.055C93.1826 292.011 94.2977 291.968 95.468 291.87L95.7032 291.846C102.84 291.098 108.767 290.476 114.039 288.816C115.533 288.203 116.97 286.315 118.073 284.865C118.217 284.675 118.356 284.493 118.488 284.322L122.827 283.061C117.965 249.396 126.191 216.356 143.965 189.608L140.645 186.642C140.622 186.5 140.598 186.339 140.571 186.16C140.357 184.711 139.981 182.176 138.564 180.665C134.49 176.84 129.354 173.668 123.159 169.842C122.15 169.248 121.17 168.727 120.199 168.211C118.339 167.221 116.51 166.249 114.57 164.817C114.121 164.485 113.565 164.028 113.035 163.592C112.825 163.418 112.618 163.248 112.423 163.09C112.399 163.072 112.374 163.055 112.35 163.038C112.322 163.02 112.295 163.001 112.268 162.98C107.298 159.017 106.156 152.18 109.723 147.707C111.729 145.191 114.795 143.946 117.979 144.055C120.456 144.139 123.021 145.044 125.195 146.777C125.386 146.929 125.597 147.093 125.814 147.263C126.399 147.72 127.036 148.218 127.497 148.614C129.337 150.197 130.702 151.767 132.093 153.367C132.804 154.186 133.522 155.012 134.314 155.852L134.496 156.037C139.524 161.143 143.701 165.386 148.282 168.469C150.393 169.699 152.08 169.433 153.697 169.178C153.944 169.139 154.19 169.1 154.435 169.067C155.03 169.507 157.032 170.942 158.176 171.723C175.807 153.016 198.966 139.161 225.864 133.054C232.115 131.634 238.373 130.691 244.59 130.176L244.833 125.793C246.212 124.458 247.76 122.537 248.198 120.437C248.645 114.905 247.928 108.957 247.065 101.794L247.047 101.644C246.883 100.495 246.683 99.4117 246.484 98.3383C246.099 96.2573 245.72 94.2131 245.63 91.7945C245.611 91.2809 245.624 90.6328 245.637 89.9983C245.644 89.7037 245.65 89.4121 245.652 89.1383C245.651 89.0926 245.646 89.0477 245.641 89.0028C245.636 88.9524 245.63 88.9021 245.63 88.8505ZM256 372C315.647 372 364 323.647 364 264C364 204.353 315.647 156 256 156C196.353 156 148 204.353 148 264C148 323.647 196.353 372 256 372Z" fill="white" stroke="white" stroke-width="0.25"/>
<line x1="255.5" y1="176.5" x2="255.5" y2="256.5" stroke="white" stroke-width="15" stroke-linecap="round"/>
<line x1="255.5" y1="176.5" x2="255.5" y2="256.5" stroke="white" stroke-width="15" stroke-linecap="round"/>
<line x1="299.955" y1="298.773" x2="256.309" y2="257.602" stroke="white" stroke-width="15" stroke-linecap="round"/>
<line x1="299.955" y1="298.773" x2="256.309" y2="257.602" stroke="white" stroke-width="15" stroke-linecap="round"/>
<defs>
<linearGradient id="paint0_linear_1_2" x1="149.5" y1="62.5" x2="374" y2="477" gradientUnits="userSpaceOnUse">
<stop stop-color="#326CE5"/>
<stop offset="1" stop-color="#32E59A"/>
</linearGradient>
</defs>
</svg>
