<svg width="1849" height="512" viewBox="0 0 1849 512" fill="none" xmlns="http://www.w3.org/2000/svg">
<path d="M254.274 14.1257C249.873 14.3474 245.561 15.4386 241.591 17.3352L68.5194 100.031C64.0399 102.17 60.104 105.283 57.0039 109.138C53.9038 112.993 51.7192 117.491 50.6124 122.298L7.9145 308.053C6.92854 312.333 6.8182 316.765 7.59 321.088C8.36181 325.411 10.0001 329.536 12.4079 333.22C12.9917 334.121 13.6196 334.992 14.2893 335.832L134.083 484.777C137.183 488.631 141.12 491.742 145.599 493.881C150.079 496.019 154.987 497.129 159.958 497.128L352.065 497.084C357.035 497.087 361.942 495.981 366.421 493.846C370.901 491.712 374.838 488.605 377.941 484.754L497.69 335.788C500.792 331.932 502.978 327.432 504.086 322.623C505.193 317.813 505.194 312.818 504.087 308.009L461.322 122.254C460.216 117.447 458.031 112.948 454.931 109.093C451.831 105.238 447.895 102.126 443.415 99.9863L270.322 17.3352C265.328 14.9494 259.81 13.8458 254.274 14.1257V14.1257Z" fill="url(#paint0_linear_1_27)"/>
<path fill-rule="evenodd" clip-rule="evenodd" d="M245.63 88.8505C245.63 82.4941 250.268 77.3411 255.989 77.3405C261.71 77.3399 266.348 82.4941 266.348 88.8505C266.35 89.1705 266.357 89.5292 266.364 89.8963C266.377 90.563 266.39 91.2569 266.37 91.7945C266.28 94.2131 265.902 96.2573 265.517 98.3383C265.318 99.4117 265.118 100.495 264.954 101.644L264.887 102.195C264.045 109.179 263.342 115.009 263.781 120.437C264.134 122.842 265.395 123.992 266.601 125.092C266.792 125.266 266.982 125.439 267.167 125.616C267.198 126.367 267.319 128.862 267.411 130.242C300.348 133.168 330.937 148.231 353.404 171.789L357.344 168.978C357.503 168.988 357.684 169.002 357.883 169.017C359.365 169.131 361.86 169.323 363.63 168.292C368.154 165.246 372.285 161.05 377.23 156.027L377.597 155.653C378.378 154.825 379.089 154.011 379.794 153.204C381.202 151.591 382.583 150.01 384.437 148.415C384.895 148.021 385.523 147.531 386.102 147.078C386.326 146.903 386.542 146.734 386.739 146.578C391.708 142.614 398.621 143.035 402.189 147.508C405.757 151.98 404.613 158.817 399.644 162.781C399.41 162.968 399.154 163.18 398.89 163.397C398.363 163.832 397.809 164.289 397.364 164.618C395.433 166.044 393.601 167.014 391.742 167.999C390.76 168.52 389.77 169.044 388.753 169.642L388.745 169.647C382.553 173.472 377.42 176.643 373.348 180.466C371.681 182.249 371.566 183.95 371.456 185.581C371.439 185.833 371.422 186.083 371.4 186.332C371.123 186.586 370.511 187.133 369.83 187.741C369.096 188.397 368.282 189.124 367.725 189.63C376.654 202.92 383.349 218.004 387.138 234.497C390.891 250.838 391.476 267.169 389.307 282.862L393.49 284.079C393.578 284.204 393.677 284.349 393.787 284.511C394.613 285.725 396.043 287.828 397.961 288.572C403.238 290.234 409.17 290.856 416.316 291.604L416.532 291.627C417.702 291.724 418.817 291.768 419.923 291.811C422.031 291.894 424.107 291.976 426.471 292.424C427.009 292.526 427.702 292.698 428.363 292.862C428.761 292.96 429.147 293.056 429.481 293.132C435.587 294.606 439.508 300.219 438.247 305.749C436.985 311.28 431.02 314.641 424.877 313.319C424.833 313.309 424.769 313.307 424.722 313.297C424.653 313.281 424.592 313.247 424.523 313.23C424.214 313.163 423.877 313.095 423.536 313.027C422.934 312.906 422.323 312.783 421.845 312.655C419.515 312.031 417.608 311.205 415.669 310.366C414.659 309.928 413.64 309.487 412.548 309.069L412.234 308.957C405.52 306.549 399.932 304.544 394.486 303.757C392.063 303.566 390.664 304.538 389.325 305.468C389.112 305.616 388.901 305.763 388.687 305.904C387.93 305.752 385.6 305.34 384.26 305.129C374.334 336.324 353.197 363.334 324.54 380.254C324.699 380.638 324.894 381.159 325.097 381.706C325.528 382.863 326.001 384.133 326.267 384.438C326.177 384.679 326.08 384.919 325.982 385.161C325.375 386.667 324.745 388.229 325.47 390.547C327.481 395.761 330.734 400.858 334.656 406.993C335.306 407.963 335.96 408.855 336.609 409.74C337.857 411.442 339.084 413.115 340.212 415.249C340.497 415.789 340.847 416.529 341.166 417.206C341.307 417.503 341.441 417.788 341.562 418.038C344.226 423.734 342.271 430.295 337.157 432.758C332.003 435.241 325.595 432.619 322.836 426.892C322.718 426.649 322.585 426.381 322.448 426.105C322.128 425.462 321.786 424.772 321.552 424.236C320.58 422.008 320.028 419.992 319.465 417.938C319.179 416.893 318.89 415.838 318.542 414.74L318.445 414.457C316.137 407.692 314.221 402.077 311.437 397.32C310.068 395.296 308.429 394.803 306.861 394.331C306.62 394.259 306.382 394.187 306.147 394.111C305.977 393.818 305.566 393.075 305.119 392.263C304.701 391.507 304.251 390.691 303.933 390.127C298.21 392.289 292.291 394.091 286.159 395.483C259.28 401.586 232.372 399.11 208.333 389.883L205.987 394.133C204.24 394.601 202.556 395.075 201.523 396.307C198.871 399.471 197.339 403.979 195.712 408.769C195.023 410.795 194.318 412.871 193.503 414.917C193.149 416.033 192.859 417.105 192.571 418.168C192.02 420.203 191.479 422.204 190.515 424.413C190.292 424.923 189.969 425.567 189.661 426.181C189.509 426.484 189.361 426.78 189.231 427.047C189.229 427.051 189.23 427.055 189.231 427.06C189.232 427.063 189.232 427.067 189.231 427.069C189.229 427.073 189.224 427.077 189.22 427.081C189.215 427.084 189.211 427.088 189.209 427.092C186.444 432.8 180.056 435.413 174.91 432.935C169.795 430.473 167.842 423.912 170.505 418.215C170.648 417.918 170.808 417.572 170.974 417.214C171.265 416.585 171.572 415.921 171.833 415.426C172.966 413.281 174.2 411.592 175.455 409.875C176.098 408.995 176.746 408.108 177.389 407.148C181.311 401.013 184.755 395.509 186.765 390.295C187.27 388.564 186.522 386.191 185.844 384.438L187.726 379.922C160.151 363.583 138.375 337.544 127.984 305.328L123.469 306.103C123.332 306.026 123.179 305.938 123.012 305.841C121.709 305.085 119.563 303.84 117.514 304C112.064 304.789 106.471 306.795 99.7496 309.206L99.4524 309.313C98.3788 309.724 97.3756 310.155 96.3816 310.582C94.4257 311.422 92.5056 312.247 90.1558 312.876C89.625 313.018 88.9316 313.165 88.2679 313.305C87.995 313.363 87.727 313.419 87.4775 313.474C87.4441 313.482 87.4125 313.494 87.381 313.506C87.3475 313.519 87.314 313.532 87.2783 313.54C87.2552 313.545 87.2276 313.548 87.2003 313.551C87.1728 313.554 87.1455 313.557 87.1233 313.562C80.9809 314.886 75.017 311.523 73.7539 305.992C72.4912 300.463 76.4136 294.851 82.5193 293.375C82.5421 293.37 82.5691 293.362 82.5964 293.353C82.6234 293.345 82.6507 293.337 82.6742 293.331C82.6882 293.328 82.7017 293.324 82.7152 293.321C82.7309 293.317 82.7466 293.313 82.7628 293.309C83.0238 293.248 83.3063 293.179 83.5953 293.109C84.2674 292.945 84.9748 292.772 85.5296 292.667C87.8935 292.219 89.9689 292.138 92.0765 292.055C93.1827 292.011 94.2978 291.968 95.4681 291.87L95.7033 291.846C102.84 291.098 108.767 290.476 114.039 288.816C115.534 288.203 116.97 286.315 118.073 284.865C118.217 284.675 118.356 284.493 118.488 284.322L122.827 283.061C117.965 249.396 126.191 216.356 143.965 189.608L140.645 186.642C140.622 186.5 140.598 186.339 140.572 186.16C140.357 184.711 139.981 182.176 138.564 180.665C134.491 176.84 129.354 173.668 123.159 169.842C122.15 169.248 121.17 168.727 120.199 168.211C118.339 167.221 116.51 166.249 114.57 164.817C114.121 164.485 113.566 164.028 113.036 163.592C112.825 163.418 112.618 163.248 112.423 163.09C112.399 163.072 112.375 163.055 112.35 163.038C112.322 163.02 112.295 163.001 112.268 162.98C107.298 159.017 106.156 152.18 109.723 147.707C111.729 145.191 114.795 143.946 117.979 144.055C120.456 144.139 123.021 145.044 125.195 146.777C125.386 146.929 125.597 147.093 125.814 147.263C126.399 147.72 127.037 148.218 127.497 148.614C129.337 150.197 130.702 151.767 132.093 153.367C132.804 154.186 133.522 155.012 134.315 155.852L134.496 156.037C139.524 161.143 143.701 165.386 148.282 168.469C150.393 169.699 152.08 169.433 153.697 169.178C153.944 169.139 154.19 169.1 154.435 169.067C155.03 169.507 157.032 170.942 158.176 171.723C175.807 153.016 198.966 139.161 225.864 133.054C232.115 131.634 238.373 130.691 244.59 130.176L244.833 125.793C246.213 124.458 247.76 122.537 248.198 120.437C248.645 114.905 247.928 108.957 247.065 101.794L247.047 101.644C246.883 100.495 246.683 99.4117 246.484 98.3383C246.099 96.2573 245.72 94.2131 245.63 91.7945C245.611 91.2809 245.624 90.6328 245.638 89.9983C245.644 89.7037 245.65 89.4121 245.652 89.1383C245.651 89.0926 245.646 89.0477 245.641 89.0028C245.636 88.9524 245.63 88.9021 245.63 88.8505ZM256 372C315.647 372 364 323.647 364 264C364 204.353 315.647 156 256 156C196.353 156 148 204.353 148 264C148 323.647 196.353 372 256 372Z" fill="white" stroke="white" stroke-width="0.25"/>
<line x1="255.5" y1="176.5" x2="255.5" y2="256.5" stroke="white" stroke-width="15" stroke-linecap="round"/>
<line x1="255.5" y1="176.5" x2="255.5" y2="256.5" stroke="white" stroke-width="15" stroke-linecap="round"/>
<line x1="299.955" y1="298.773" x2="256.309" y2="257.602" stroke="white" stroke-width="15" stroke-linecap="round"/>
<line x1="299.955" y1="298.773" x2="256.309" y2="257.602" stroke="white" stroke-width="15" stroke-linecap="round"/>
<path d="M761.797 303.732H796.221C795.119 316.859 791.447 328.563 785.205 338.845C778.963 349.034 770.196 357.066 758.905 362.941C747.614 368.816 733.891 371.754 717.734 371.754C705.342 371.754 694.188 369.551 684.274 365.145C674.36 360.646 665.869 354.312 658.801 346.143C651.732 337.881 646.316 327.921 642.553 316.263C638.881 304.604 637.045 291.569 637.045 277.157V260.496C637.045 246.084 638.927 233.049 642.69 221.391C646.546 209.732 652.054 199.772 659.214 191.511C666.374 183.157 674.957 176.777 684.963 172.371C695.061 167.965 706.397 165.762 718.974 165.762C734.946 165.762 748.44 168.699 759.456 174.574C770.472 180.449 779.009 188.573 785.067 198.946C791.218 209.319 794.981 221.207 796.358 234.609H761.935C761.017 225.98 758.997 218.591 755.876 212.44C752.847 206.29 748.349 201.608 742.382 198.396C736.415 195.091 728.612 193.438 718.974 193.438C711.079 193.438 704.194 194.907 698.319 197.845C692.444 200.782 687.533 205.097 683.586 210.788C679.639 216.479 676.655 223.502 674.636 231.855C672.708 240.117 671.744 249.572 671.744 260.221V277.157C671.744 287.255 672.616 296.435 674.36 304.696C676.196 312.866 678.95 319.889 682.622 325.764C686.386 331.639 691.159 336.183 696.942 339.396C702.726 342.608 709.656 344.215 717.734 344.215C727.557 344.215 735.497 342.654 741.556 339.533C747.706 336.412 752.342 331.868 755.463 325.901C758.676 319.843 760.787 312.453 761.797 303.732Z" fill="white"/>
<path d="M857.633 248.379V369H824.448V220.014H856.118L857.633 248.379ZM903.21 219.05L902.935 249.894C900.915 249.526 898.712 249.251 896.325 249.067C894.03 248.884 891.735 248.792 889.44 248.792C883.749 248.792 878.746 249.618 874.432 251.271C870.117 252.831 866.491 255.126 863.554 258.155C860.708 261.093 858.505 264.673 856.944 268.896C855.384 273.118 854.466 277.846 854.19 283.078L846.617 283.629C846.617 274.266 847.535 265.591 849.371 257.604C851.207 249.618 853.961 242.596 857.633 236.537C861.396 230.479 866.078 225.751 871.678 222.354C877.369 218.958 883.933 217.26 891.368 217.26C893.388 217.26 895.545 217.443 897.84 217.811C900.227 218.178 902.017 218.591 903.21 219.05Z" fill="white"/>
<path d="M914.088 296.159V292.992C914.088 282.252 915.648 272.292 918.77 263.112C921.891 253.841 926.389 245.809 932.264 239.016C938.23 232.131 945.482 226.807 954.02 223.043C962.648 219.188 972.379 217.26 983.211 217.26C994.135 217.26 1003.87 219.188 1012.4 223.043C1021.03 226.807 1028.33 232.131 1034.3 239.016C1040.26 245.809 1044.81 253.841 1047.93 263.112C1051.05 272.292 1052.61 282.252 1052.61 292.992V296.159C1052.61 306.899 1051.05 316.859 1047.93 326.039C1044.81 335.219 1040.26 343.251 1034.3 350.136C1028.33 356.929 1021.08 362.253 1012.54 366.108C1004 369.872 994.318 371.754 983.486 371.754C972.562 371.754 962.786 369.872 954.157 366.108C945.62 362.253 938.368 356.929 932.401 350.136C926.435 343.251 921.891 335.219 918.77 326.039C915.648 316.859 914.088 306.899 914.088 296.159ZM947.272 292.992V296.159C947.272 302.86 947.961 309.194 949.338 315.161C950.715 321.128 952.872 326.36 955.81 330.858C958.747 335.356 962.511 338.891 967.101 341.461C971.69 344.031 977.152 345.316 983.486 345.316C989.637 345.316 994.961 344.031 999.459 341.461C1004.05 338.891 1007.81 335.356 1010.75 330.858C1013.69 326.36 1015.84 321.128 1017.22 315.161C1018.69 309.194 1019.42 302.86 1019.42 296.159V292.992C1019.42 286.383 1018.69 280.141 1017.22 274.266C1015.84 268.299 1013.64 263.021 1010.61 258.431C1007.67 253.841 1003.91 250.261 999.321 247.69C994.823 245.028 989.453 243.697 983.211 243.697C976.969 243.697 971.553 245.028 966.963 247.69C962.465 250.261 958.747 253.841 955.81 258.431C952.872 263.021 950.715 268.299 949.338 274.266C947.961 280.141 947.272 286.383 947.272 292.992Z" fill="white"/>
<path d="M1113.33 251.821V369H1080.15V220.014H1111.41L1113.33 251.821ZM1107.41 288.999L1096.67 288.861C1096.76 278.305 1098.23 268.62 1101.08 259.808C1104.02 250.995 1108.05 243.422 1113.2 237.088C1118.43 230.754 1124.67 225.889 1131.92 222.492C1139.17 219.004 1147.25 217.26 1156.16 217.26C1163.32 217.26 1169.79 218.27 1175.57 220.289C1181.45 222.217 1186.45 225.384 1190.58 229.79C1194.8 234.196 1198.02 239.934 1200.22 247.002C1202.42 253.979 1203.52 262.562 1203.52 272.751V369H1170.2V272.613C1170.2 265.453 1169.15 259.808 1167.03 255.677C1165.01 251.454 1162.03 248.471 1158.08 246.727C1154.23 244.891 1149.41 243.973 1143.63 243.973C1137.93 243.973 1132.84 245.166 1128.34 247.553C1123.84 249.939 1120.03 253.198 1116.91 257.329C1113.88 261.46 1111.54 266.233 1109.89 271.649C1108.24 277.065 1107.41 282.849 1107.41 288.999Z" fill="white"/>
<path d="M1275.26 168.516V369H1240.7V168.516H1275.26ZM1395.75 168.516L1314.51 265.04L1268.24 314.06L1262.18 279.773L1295.23 239.016L1353.61 168.516H1395.75ZM1358.57 369L1292.61 273.99L1316.43 250.444L1399.6 369H1358.57Z" fill="white"/>
<path d="M1544.73 314.335C1544.73 326.819 1541.84 337.33 1536.06 345.867C1530.27 354.404 1522.38 360.876 1512.37 365.282C1502.46 369.597 1491.26 371.754 1478.78 371.754C1466.29 371.754 1455.05 369.597 1445.04 365.282C1435.04 360.876 1427.14 354.404 1421.36 345.867C1415.57 337.33 1412.68 326.819 1412.68 314.335C1412.68 306.073 1414.29 298.592 1417.5 291.891C1420.71 285.098 1425.26 279.269 1431.13 274.403C1437.1 269.446 1444.08 265.637 1452.06 262.975C1460.14 260.312 1468.95 258.981 1478.5 258.981C1491.17 258.981 1502.51 261.322 1512.51 266.004C1522.52 270.686 1530.37 277.157 1536.06 285.419C1541.84 293.681 1544.73 303.319 1544.73 314.335ZM1511.41 312.683C1511.41 305.981 1510.03 300.106 1507.28 295.058C1504.53 290.009 1500.67 286.107 1495.71 283.354C1490.76 280.6 1485.02 279.223 1478.5 279.223C1471.89 279.223 1466.15 280.6 1461.29 283.354C1456.42 286.107 1452.61 290.009 1449.86 295.058C1447.2 300.106 1445.87 305.981 1445.87 312.683C1445.87 319.476 1447.2 325.351 1449.86 330.308C1452.52 335.173 1456.33 338.891 1461.29 341.461C1466.25 344.031 1472.08 345.316 1478.78 345.316C1485.48 345.316 1491.26 344.031 1496.13 341.461C1500.99 338.891 1504.75 335.173 1507.42 330.308C1510.08 325.351 1511.41 319.476 1511.41 312.683ZM1540.19 221.253C1540.19 231.259 1537.53 240.163 1532.2 247.966C1526.97 255.769 1519.72 261.919 1510.45 266.417C1501.17 270.823 1490.62 273.026 1478.78 273.026C1466.84 273.026 1456.19 270.823 1446.83 266.417C1437.56 261.919 1430.26 255.769 1424.94 247.966C1419.71 240.163 1417.09 231.259 1417.09 221.253C1417.09 209.319 1419.71 199.268 1424.94 191.098C1430.26 182.836 1437.56 176.548 1446.83 172.233C1456.1 167.919 1466.71 165.762 1478.64 165.762C1490.57 165.762 1501.17 167.919 1510.45 172.233C1519.72 176.548 1526.97 182.836 1532.2 191.098C1537.53 199.268 1540.19 209.319 1540.19 221.253ZM1507 222.354C1507 216.388 1505.81 211.155 1503.42 206.657C1501.13 202.067 1497.87 198.487 1493.65 195.917C1489.42 193.347 1484.42 192.062 1478.64 192.062C1472.86 192.062 1467.85 193.301 1463.63 195.779C1459.41 198.258 1456.15 201.746 1453.85 206.244C1451.56 210.742 1450.41 216.112 1450.41 222.354C1450.41 228.505 1451.56 233.875 1453.85 238.465C1456.15 242.963 1459.41 246.497 1463.63 249.067C1467.94 251.638 1472.99 252.923 1478.78 252.923C1484.56 252.923 1489.56 251.638 1493.79 249.067C1498.01 246.497 1501.27 242.963 1503.56 238.465C1505.86 233.875 1507 228.505 1507 222.354Z" fill="white"/>
<path d="M1659.43 328.655C1659.43 325.351 1658.61 322.367 1656.95 319.705C1655.3 316.951 1652.13 314.473 1647.45 312.27C1642.86 310.066 1636.07 308.047 1627.07 306.211C1619.18 304.467 1611.93 302.401 1605.32 300.015C1598.8 297.536 1593.2 294.553 1588.52 291.064C1583.84 287.576 1580.21 283.445 1577.64 278.672C1575.07 273.898 1573.79 268.391 1573.79 262.148C1573.79 256.09 1575.12 250.353 1577.78 244.937C1580.44 239.521 1584.25 234.747 1589.21 230.616C1594.17 226.485 1600.18 223.227 1607.25 220.84C1614.41 218.453 1622.39 217.26 1631.21 217.26C1643.69 217.26 1654.38 219.371 1663.29 223.594C1672.28 227.725 1679.17 233.37 1683.94 240.53C1688.72 247.599 1691.1 255.585 1691.1 264.489H1657.92C1657.92 260.542 1656.91 256.87 1654.89 253.474C1652.96 249.985 1650.02 247.186 1646.08 245.074C1642.13 242.871 1637.17 241.77 1631.21 241.77C1625.51 241.77 1620.79 242.688 1617.02 244.523C1613.35 246.268 1610.6 248.562 1608.76 251.408C1607.02 254.254 1606.14 257.375 1606.14 260.771C1606.14 263.25 1606.6 265.499 1607.52 267.519C1608.53 269.446 1610.18 271.236 1612.48 272.889C1614.77 274.449 1617.89 275.918 1621.84 277.295C1625.88 278.672 1630.93 280.003 1636.99 281.288C1648.37 283.675 1658.15 286.75 1666.32 290.514C1674.58 294.186 1680.91 298.959 1685.32 304.834C1689.73 310.617 1691.93 317.961 1691.93 326.865C1691.93 333.475 1690.51 339.533 1687.66 345.041C1684.91 350.457 1680.87 355.185 1675.54 359.224C1670.22 363.171 1663.84 366.246 1656.4 368.449C1649.06 370.652 1640.8 371.754 1631.62 371.754C1618.12 371.754 1606.7 369.367 1597.33 364.594C1587.97 359.729 1580.85 353.532 1575.99 346.005C1571.22 338.386 1568.83 330.491 1568.83 322.321H1600.91C1601.28 328.472 1602.98 333.383 1606.01 337.055C1609.13 340.635 1612.98 343.251 1617.57 344.903C1622.25 346.464 1627.07 347.244 1632.03 347.244C1638 347.244 1643 346.464 1647.04 344.903C1651.08 343.251 1654.15 341.048 1656.27 338.294C1658.38 335.448 1659.43 332.235 1659.43 328.655Z" fill="white"/>
<defs>
<linearGradient id="paint0_linear_1_27" x1="149.5" y1="62.5" x2="374" y2="477" gradientUnits="userSpaceOnUse">
<stop stop-color="#326CE5"/>
<stop offset="1" stop-color="#32E59A"/>
</linearGradient>
</defs>
</svg>
